# xmcd
#
# Track frame offsets: 
#        150
#        13880
#        27232
#        39445
#        52595
#        66480
#        80147
#        91717
#        104640
#        115797
#        129160
#        143185
#        155177
#        167560
#        179785
#        193435
#        208367
#        220805
#        232340
#        245255
#        255310
#        267367
#        279910
#        291460
#        303842
#
# Disc length: 4231 seconds
#
# Revision: 0
# Processed by: cddbd v1.5.2PL0 Copyright (c) Steve Scherf et al.
# Submitted via: ExactAudioCopy v1.0b3
#
DISCID=7c108519
DTITLE=Various Artist - Rhythm For Sale - The Best Of Female Jive Sin
DTITLE=gers
DYEAR=1999
DGENRE=R&B
TTITLE0=Alberta Hunter - You Can't Tell The Difference After Dark
TTITLE1=Lil Green - Why Don't You Do Right
TTITLE2=Una Mae Carlisle - Papa's In Bed With His Britches On
TTITLE3=Una Mae Carlisle - You Made Me Love You
TTITLE4=Una Mae Carlisle - Walkin' By The River
TTITLE5=Mildred Bailey - Lover Come Back To Me
TTITLE6=Nora Lee King - Yump Da Da Da
TTITLE7=The Yas Yas Girl - You're A Pain In The Neck
TTITLE8=Blue Lu Barker - Buy Me Some Juice
TTITLE9=Rosetta Howard - The Jive Is Here
TTITLE10=Leola B. Pettigrew - Boop-Poop-A-Doop
TTITLE11=Georgia White - Trouble In My Mind
TTITLE12=Cleo Brown - The Stuff Is Here And It's Mellow
TTITLE13=Monette Moore - Rhythm For Sale
TTITLE14=Jerry Kruger - Summertime
TTITLE15=Rosetta Crawford - My Man Jumped Salty On Me
TTITLE16=Sister Rosetta Tharpe - Shout Sister Shout
TTITLE17=The Yas Yas Girl - Got A Mind To Ramble
TTITLE18=Rosetta Howard - It Will Never Happen Again
TTITLE19=Camille Howard - You Don't Love Me
TTITLE20=Monette Moore - Peace, Sister, Peace
TTITLE21=Ida James - Knock Me A Kiss
TTITLE22=Mable Scott - Elevator Boogie
TTITLE23=Cleo Brown - Cleo's Boogie
TTITLE24=Julia Lee - When You Smilin'
EXTD=
EXTT0=
EXTT1=
EXTT2=
EXTT3=
EXTT4=
EXTT5=
EXTT6=
EXTT7=
EXTT8=
EXTT9=
EXTT10=
EXTT11=
EXTT12=
EXTT13=
EXTT14=
EXTT15=
EXTT16=
EXTT17=
EXTT18=
EXTT19=
EXTT20=
EXTT21=
EXTT22=
EXTT23=
EXTT24=
PLAYORDER=
